<?xml version="1.0" encoding="utf-8"?>
<!-- Generator: Adobe Illustrator 16.0.0, SVG Export Plug-In . SVG Version: 6.00 Build 0)  -->
<!DOCTYPE svg PUBLIC "-//W3C//DTD SVG 1.1//EN" "http://www.w3.org/Graphics/SVG/1.1/DTD/svg11.dtd">
<svg version="1.1" id="Layer_1" xmlns="http://www.w3.org/2000/svg" xmlns:xlink="http://www.w3.org/1999/xlink" x="0px" y="0px"
	 width="631.187px" height="583px" viewBox="0 0 631.187 583" enable-background="new 0 0 631.187 583" xml:space="preserve">
<g>
	<path fill-rule="evenodd" clip-rule="evenodd" fill="#12110D" d="M198.136,117.258c0.104-1.062-0.579-1.584-1.042-2.197
		c-13.555-17.971-24.395-37.5-33.079-58.22c-3.142-7.498-7.774-13.723-13.932-18.907c-4.066-3.423-8.186-6.783-12.191-10.274
		c-0.79-0.688-2.446-1.182-1.581-2.871c0.91-1.774,2.229-0.555,3.246-0.277c14.496,3.963,29.016,7.808,43.7,11.042
		c5.682,1.251,11.258,0.473,16.863,0.09c30.363-2.078,60.723-3.917,91.184-2.419c37.918,1.864,74.662,9.067,109.732,23.917
		c2.116,0.896,3.247,0.694,4.803-1.032c13.66-15.159,29.273-27.592,48.928-34.179c18.45-6.183,37.268-6.163,56.34-3.667
		c27.056,3.542,50.648,14.651,71.313,32.119c23.105,19.533,32.929,44.919,32.137,74.832c-0.369,13.954-2.715,27.663-4.663,41.429
		c-0.396,2.79-0.424,5.63-0.702,8.439c-1.479,14.891-9.262,25.983-21.208,34.335c-15.462,10.811-33.062,14.682-51.602,15.205
		c-6.782,0.191-13.52-0.468-20.7-1.36c6.259,8.954,7.98,19.008,9.708,29.031c2.484,14.406,8.945,27.453,13.872,41.021
		c4.473,12.317,9.974,24.424,12.021,37.372c4.864,30.768-0.055,59.479-20.595,84.15c-1.689,2.029-1.693,3.356-0.358,5.504
		c5.201,8.372,11.403,16.027,16.941,24.155c6.034,8.854,11.251,18.046,12.23,29.032c0.087,0.978,0.04,1.813,1.711,1.705
		c5.136-0.328,7.414,1.846,7.707,7.039c0.127,2.249,0.021,4.511,0.021,6.896c1.364-0.892,2.698-2.034,4.237-2.719
		c4.646-2.071,8.023,0.042,7.729,5.033c-1.563,26.453-9.676,50.19-28.669,69.54c-5.179,5.276-11.479,7.367-17.878,5.204
		c-7.834-2.647-15.083-1.118-22.579,0.119c-13.512,2.231-27.035,4.194-40.794,3.928c-13.828-0.267-27.167-2.89-40.02-7.955
		c-1.768-0.696-3.361-0.813-5.221-0.439c-42.384,8.538-84.785,7.497-127.094-0.372c-8.076-1.502-15.305-1.482-23.214,1.593
		c-19.272,7.493-39.703,9.492-60.225,10.324c-7.119,0.288-14.248,0.323-21.372,0.479c-4.364,0.095-8.617-0.046-12.845,2.012
		c-4.27,2.077-8.908,0.496-13.235-0.843c-9.799-3.031-16.839-9.9-23.44-17.29c-1.607-1.799-3.345-3.312-5.479-4.439
		c-22.549-11.921-32.648-30.967-31.913-56.112c0.068-2.318-0.516-3.911-2.156-5.63c-6.271-6.572-8.006-15.021-9.006-23.639
		c-1.377-11.869-0.381-23.716,0.591-35.561c0.171-2.082,1.15-2.28,2.899-2.134c7.784,0.649,15.579,0.957,23.378,0.184
		c4.828-0.479,7.197-2.975,6.969-7.928c-0.459-9.94-1.056-19.876-1.707-29.807c-1.541-23.506-2.607-47.002,1.717-70.355
		c1.025-5.539,2.401-11.013,3.725-17.011c-6.746,1.037-12.974-1.841-19.906-0.837c-19.485,2.82-38.615-0.071-57.023-6.751
		c-19.228-6.978-32.142-20.649-37.736-40.243c-7.935-27.793-7.925-55.68,2.79-82.875c10.691-27.136,31.082-45.078,56.271-58.644
		c21.166-11.398,43.904-13.225,67.118-12.826c18.12,0.311,35.416,4.255,51.183,13.655c0.386,0.23,0.784,0.455,1.205,0.605
		C197.418,117.498,197.666,117.36,198.136,117.258z M547.66,449.986l0.022,0.039c-0.261-1.768-1.56-2.956-2.49-4.33
		c-5.44-8.034-11.498-15.629-16.727-23.824c-2.098-3.287-2.919-5.916,0.533-8.65c0.641-0.508,1.405-1.219,1.073-2.304
		c1.887-1.313,3.211-3.136,4.49-4.99c13.72-19.892,17.024-42.271,15.69-65.755c-0.204-4.646-1.024-9.189-2.268-13.664
		c-3.998-14.392-9.425-28.281-14.74-42.212c-4.023-10.543-8.442-20.933-10.333-32.197c-1.758-10.466-3.464-21.047-10.911-29.461
		c-1.103-1.246-0.309-2.017,0.917-2.528c5.945,1.569,12.042,1.901,18.138,2.052c18.066,0.449,35.43-2.502,51.17-11.853
		c14.627-8.69,24.409-20.744,24.512-38.695c0.072-12.629-3.031-23.912-14.062-31.732c-6.631-4.702-13.835-8.095-21.634-10.242
		c-20.032-5.515-40.256-5.083-60.528-1.668c-10.392,1.75-20.562,4.354-30.062,9.091c-3.146,1.569-6.237,3.292-8.342,6.231
		c-1.913,2.672-0.889,5.458,2.3,6.261c1.406,0.354,2.908,0.429,4.37,0.451c7.688,0.111,15.379,0.096,23.066,0.261
		c5.192,0.112,10.411,0.081,15.525,1.244c2.206,0.502,3.547,1.686,3.735,4.139c0.176,2.287-0.9,3.637-2.746,4.59
		c-2.453,1.268-5.139,1.658-7.836,2.012c-7.374,0.969-14.797,0.512-22.271,0.825c0.813,0.606,1.691,0.983,2.574,1.348
		c5.016,2.074,10.026,4.166,14.474,7.351c2.789,1.998,5.207,4.32,6.51,7.625c0.802,2.033,0.495,3.053-1.935,3.444
		c-5.291,0.851-10.341-0.064-15.368-1.515c-6.571-2.857-12.247-7.239-18.386-10.833c-0.829-0.485-2.241-0.875-1.595-2.142
		c0.815-1.599,2.01-0.346,2.847,0.156c4.458,2.677,8.813,5.526,13.289,8.168c4.772,2.817,9.95,4.293,15.541,4.003
		c0.961-0.05,2.285,0.401,2.783-0.62c0.574-1.181-0.598-2.074-1.279-2.902c-2.273-2.756-5.261-4.596-8.375-6.241
		c-6.524-3.445-13.468-5.841-20.436-8.187c-0.977-0.329-2.662-0.341-2.459-1.822c0.247-1.796,1.926-1.122,3.053-1.054
		c9.264,0.557,18.529,0.814,27.805,0.318c2.946-0.158,5.862-0.565,8.663-1.502c1.235-0.414,2.674-0.788,2.641-2.618
		c-0.036-2.07-1.642-2.257-3.049-2.486c-4.588-0.747-9.225-0.834-13.866-0.911c-8.478-0.139-16.961,0.252-25.437-0.391
		c-3.338-0.253-6.065-1.305-7.158-4.641c-1.11-3.394,0.764-5.884,3.145-8.012c3.772-3.372,8.269-5.536,12.941-7.271
		c21.79-8.09,44.339-10.64,67.395-8.552c13.987,1.267,27.38,4.728,39.308,12.633c7.729,5.123,13.481,11.637,15.504,20.96
		c0.137,0.633-0.073,1.694,1.195,1.606c2.152-13.77,4.065-27.542,3.545-41.518c-0.818-21.944-7.77-41.551-23.186-57.481
		c-17.188-17.762-37.774-30.108-61.871-36.069c-19.142-4.735-38.506-6.693-58.156-3.167c-25.139,4.511-44.553,18.456-61.346,36.842
		c-1.964,2.15,0.008,2.284,1.208,2.83c19.832,9.015,38.765,19.688,56.033,32.92c6.509,4.988,12.051,5.662,19.647,3.391
		c20.888-6.246,40.979-14.222,60.133-24.611c0.9-0.488,1.808-1.633,3.037-0.624c1.208,0.99,0.294,2.034,0.034,3.078
		c-1.093,4.384-2.461,8.73-3.113,13.181c-0.433,2.942-1.818,4.157-4.379,5.167c-21.399,8.441-43.312,15.119-65.918,19.441
		c-1.761,0.337-3.027,0.962-4.139,2.484c-14.908,20.444-33.675,36.562-55.827,48.627c-36.295,19.768-74.775,27.233-115.654,19.01
		c-34.314-6.902-62.663-24.523-86.575-49.658c-9.979-10.488-21.838-17.831-35.582-22.177c-17.672-5.589-35.785-6.13-54.06-4.457
		c-12.523,1.147-24.805,2.981-36.41,8.51c-17.993,8.571-34.326,19.208-47.028,34.813c-16.426,20.178-23.307,43.583-23.182,69.309
		c0.071,14.666,1.406,29.129,6.792,42.969c0.788,2.023,1.812,2.914,4.114,3.127c26.084,2.414,51.435-0.736,76.109-9.541
		c19.689-7.025,37.93-16.994,56.021-27.287c1.228-0.699,2.366-1.881,4.033-1.27c0.309,0.963-0.087,1.684-0.793,2.298
		c-10.936,5.885-21.67,12.136-32.818,17.634c-28.729,14.17-58.81,22.457-91.109,21.266c-4.132-0.153-8.257-0.454-12.425-0.688
		c-0.117,1.642,0.822,2.57,1.43,3.6c7.146,12.1,17.703,20.011,30.7,24.905c10.022,3.773,20.498,5.395,31.066,6.653
		c22.05,2.63,42.274-1.603,59.933-15.687c0.892-0.711,1.731-1.542,2.99-0.751c0.358,1.781-1.17,2.301-2.167,3.092
		c-6.607,5.239-13.908,9.241-21.836,12.111c-0.75,0.272-1.862,0.099-2.095,1.706c2.108,0,4.127,0.057,6.142-0.011
		c5.907-0.195,11.66-1.318,17.332-2.935c0.813-0.231,1.952-0.747,2.372,0.422c0.537,1.491-0.866,1.596-1.776,1.821
		c-3.287,0.815-6.561,1.888-9.902,2.218c-2.966,0.293-4.116,1.491-4.886,4.319c-7.857,28.892-6.712,58.203-4.371,87.586
		c0.444,8.459,0.82,16.922,1.379,25.373c0.149,2.254-0.331,4.16-1.329,6.146c-2.784,5.542-5.945,10.907-8.068,16.768
		c-0.404,0.674-0.866,1.32-1.205,2.026c-8.713,18.146-13.23,37.204-12.058,57.403c1.192,20.528,10.488,36.095,28.779,45.974
		c0.334,0.309,0.715,0.641,1.118,0.219c0.107-0.111-0.141-0.565-0.227-0.861c-3.995-9.576-8.526-18.95-11.103-29.066
		c-1.997-7.84-3.392-15.72-1.015-23.74c1.434-4.835,5.581-6.479,10.071-4.111c0.663,0.349,1.107,1.19,2.041,0.99
		c0.187-7.935,1.657-12.486,4.763-13.441c6.895-2.121,10.104,2.898,13.405,7.59c2.703-4.676,5.37-5.135,9.389-1.799
		c9.831,8.157,15.553,18.892,19.4,30.833c3.579,11.105,4.005,22.649,4.963,34.129c0.584,7.01,1.019,13.969-2.888,20.682
		c11.225,0.039,22.043-0.126,32.856-0.726c21.568-1.196,42.682-4.575,62.685-13.176c1.586-0.682,3.039-0.616,4.606-0.346
		c8.46,1.462,16.896,3.093,25.388,4.341c37.553,5.521,75.014,5.45,112.322-2.17c1.431-0.291,2.824-0.56,4.313,0.059
		c20.049,8.322,40.879,9.979,62.235,7.299c10.518-1.32,20.955-3.096,31.394-4.854c-0.511-2.213-1.085-4.162-1.402-6.152
		c-1.55-9.74-1.799-19.576-2.055-29.408c-0.38-14.613,4.091-27.805,11.909-39.956c2.585-4.019,5.819-7.511,9.976-10.01
		c3.742-2.252,8.438-0.611,10.051,3.452c0.361,0.912,0.169,2.042,1.063,2.753c2.207-3.464,4.698-6.566,3.577-11.347
		c-1.673-7.138-4.106-13.833-8.26-19.881C548.525,450.794,548.381,450.17,547.66,449.986z M544.318,75.34
		c-0.84,0.312-1.734,0.524-2.51,0.951c-10.702,5.896-21.905,10.65-33.313,14.996c-26.443,10.071-53.85,15.71-82.024,17.135
		c-14.63,0.74-29.316,0.474-43.979-1.04c-15.821-1.634-31.462-4.154-46.89-7.9c-28.718-6.973-56.294-17.199-82.972-29.865
		c-18.792-8.922-36.958-19.008-54.724-29.814c-1.78-1.083-3.387-1.291-5.362-0.896c0.2,0.421,0.238,0.699,0.39,0.792
		c23.455,14.489,47.34,28.173,72.398,39.769c26.198,12.123,53.192,21.86,81.347,28.309c18.032,4.13,36.33,6.562,54.77,7.43
		c10.916,0.514,21.882,0.391,32.85-0.339c12.044-0.802,23.982-2.17,35.843-4.271c23.727-4.202,46.698-11.046,69.036-20.055
		c1.186-0.478,2.285-0.804,2.568-2.322c0.804-4.305,2.246-8.483,2.564-12.886c0.054-0.09,0.107-0.179,0.162-0.269
		C544.42,75.155,544.369,75.248,544.318,75.34z M143.488,28.516c0.462,1.591,1.657,2.094,2.595,2.858
		c7.929,6.455,15.515,13.172,19.53,22.991c4.497,10.996,9.771,21.627,15.631,31.96c14.359,25.317,32.131,47.748,55.558,65.36
		c27.126,20.394,57.653,30.944,91.592,31.564c10.527,0.192,20.962-0.805,31.307-2.711c17.109-3.152,33.39-8.771,48.857-16.717
		c12.818-6.584,24.684-14.622,35.489-24.147c7.894-6.958,15.253-14.467,21.55-22.943c0.492-0.663,1.651-1.378,1.024-2.282
		c-0.653-0.944-1.86-0.339-2.832-0.204c-2.678,0.372-5.352,0.765-8.029,1.138c-8.498,1.184-17.038,1.815-25.607,2.272
		c-9.827,0.524-19.638,0.685-29.45-0.049c-6.713-0.501-12.728-0.4-18.931,4.032c-16.968,12.124-36.072,20.586-54.804,29.612
		c-5.802,2.796-11.654,5.489-17.485,8.224c-0.818,0.384-1.767,0.949-2.349-0.188c-0.595-1.162,0.459-1.573,1.248-1.976
		c1.712-0.874,3.438-1.723,5.173-2.548c20.511-9.755,41.254-19.06,60.636-31.019c3.354-2.069,6.593-4.325,10.072-6.619
		c-0.748-0.545-0.917-0.771-1.108-0.791c-1.457-0.147-2.928-0.19-4.378-0.383c-22.305-2.97-44.263-7.566-65.542-14.93
		c-5.941-2.056-10.895-2.717-16.808,0.713c-9.538,5.531-20.481,7.528-31.17,9.939c-6.492,1.464-13.003,2.854-19.371,4.831
		c-0.972,0.302-2.465,0.981-2.822-0.642c-0.279-1.265,1.173-1.455,2.093-1.76c1.606-0.532,3.236-0.997,4.872-1.433
		c12.749-3.39,25.869-5.36,38.286-10.021c3.982-1.495,7.946-3.021,11.753-5.607c-0.599-0.418-0.905-0.741-1.279-0.877
		c-18.818-6.854-37.005-15.127-54.772-24.344c-0.821-0.426-1.676-0.848-2.58-0.43c-6.196,2.867-12.929,3.067-19.515,3.668
		c-7.865,0.717-15.771,1.23-23.691,0.971c-0.878-0.028-2.003,0.107-1.993-1.209c0.008-1.187,1.043-1.337,1.962-1.401
		c0.901-0.063,1.81-0.049,2.714-0.032c9.276,0.177,18.511-0.553,27.708-1.583c3.329-0.373,6.841-0.507,10.231-2.337
		c-0.659-0.474-0.984-0.767-1.358-0.968c-14.328-7.717-28.406-15.862-42.253-24.416c-3.517-2.172-6.685-5.07-10.957-5.884
		c-9.648-1.838-19.118-4.427-28.639-6.804C151.671,30.404,147.802,28.864,143.488,28.516z M469.299,100.224
		c-0.003-1.071-0.605-1.277-1.028-1.589c-17.874-13.155-36.707-24.674-56.794-34.202c-39.381-18.678-81.104-27.233-124.36-29.001
		c-22.928-0.938-45.867-0.034-68.762,1.39c-5.647,0.351-11.384,0.247-17.64,1.627c12.202,7.539,24.127,14.344,37.212,20.896
		c-1.156-3.955-2.809-6.576-5.082-8.772c-2.596-2.508-5.343-4.86-8.017-7.288c-0.603-0.547-1.241-1.22-0.718-2.038
		c0.571-0.894,1.387-0.485,2.05,0.023c6.04,4.633,11.95,9.408,14.164,17.16c0.574,2.01,1.598,3.2,3.502,4.137
		c13.893,6.836,28.021,13.129,42.45,18.744c3.934,1.531,7.935,2.892,11.974,4.356c0.133-0.698,0.27-0.953,0.197-1.109
		c-0.58-1.225-1.152-2.457-1.814-3.637c-6.085-10.851-12.731-21.325-20.551-31.035c-0.951-1.18-3.615-2.698-2.093-3.925
		c1.964-1.584,3.122,1.423,4.171,2.688c9.125,10.997,16.506,23.156,23.195,35.74c1.079,2.029,2.323,3.236,4.574,3.977
		c20.081,6.608,40.56,11.54,61.458,14.662c6.682,0.998,13.436,1.514,20.163,2.182c0.809,0.08,1.975,0.528,2.426-0.532
		c0.392-0.92-0.43-1.702-0.981-2.373c-2.437-2.962-4.785-6.017-7.427-8.79c-9.279-9.741-18.898-19.144-29.199-27.81
		c-4.399-3.701-8.755-7.484-13.774-10.387c-0.849-0.491-3.207,0.181-2.207-1.931c0.753-1.591,2.347-0.808,3.558-0.126
		c3.357,1.89,6.384,4.246,9.388,6.643c8.486,6.771,16.428,14.167,24.183,21.727c7.179,6.997,14.531,13.942,19.662,22.729
		c0.883,1.511,2.038,1.587,3.401,1.523c7.213-0.34,14.393,0.475,21.636,0.267C435.415,105.657,452.373,103.687,469.299,100.224z
		 M161.341,502.909c-0.813-1.878-1.336-3.106-1.875-4.329c-2.049-4.644-3.812-9.448-7.079-13.44
		c-1.799-2.198-4.026-3.904-7.03-3.026c-2.788,0.815-3.327,3.528-3.825,5.934c-0.783,3.777,0.858,7.104,2.498,10.332
		c1.991,3.922,3.952,7.833,4.644,12.77c-2.94-3.177-4.912-6.446-7.006-9.626c-1.491-2.263-2.882-4.624-5.046-6.336
		c-3.14-2.484-6.455-1.424-7.53,2.411c-1.338,4.773-1.231,9.629-0.472,14.46c2.06,13.106,7.331,25.126,13.074,36.904
		c5.523,11.327,14.583,19.29,26.294,23.633c13.571,5.034,21.194-0.616,20.85-15.048c-0.187-7.783-0.796-15.579-1.662-23.32
		c-1.475-13.189-5.285-25.638-12.979-36.66c-2.732-3.913-5.953-7.382-9.694-10.361c-1.016-0.81-2.023-1.481-3.373-0.796
		c-1.453,0.738-1.178,2.085-1.028,3.273c0.184,1.45,0.483,2.904,0.917,4.299C161.841,496.632,161.969,499.289,161.341,502.909z
		 M552.907,499.015c-2.061-2.952-2.532-5.545-2.48-8.308c0.053-2.823,0.264-5.673-0.028-8.466c-0.426-4.086-3.987-5.667-7.416-3.489
		c-2.212,1.405-4.144,3.164-5.794,5.184c-8.963,10.973-13.618,23.808-14.387,37.71c-0.604,10.915,0.336,21.922,1.817,32.812
		c0.904,6.652,1.824,7.75,8.347,9.29c5.453,1.287,11.08,1.563,15.426-2.501c20.241-18.929,28.607-43.079,30.124-70.1
		c0.153-2.721-1.219-3.557-3.893-2.737c-1.698,0.521-2.916,1.672-3.972,3.039c-2.745,3.557-3.78,7.624-3.771,12.06
		c0.003,1,0.622,2.188-0.433,3.098c-2.816-1.597-2.459-4.029-2.009-6.578c1.02-5.784,2.246-11.554,2.176-17.466
		c-0.024-2.089-0.516-4.167-2.816-4.959c-2.217-0.763-3.955,0.434-5.447,1.876c-1.854,1.794-2.712,4.162-3.186,6.625
		C554.376,490.202,553.719,494.325,552.907,499.015z M107.03,490.667c0.832-10.541,2.689-20.018,5.844-29.216
		c3.087-8.999,7.103-17.598,11.367-26.083c0.929-1.85,1.244-2.756-1.529-2.525c-7.108,0.593-14.24,0.394-21.357,0.016
		c-1.698-0.089-2.728,0.014-2.879,2.142c-0.837,11.74-1.659,23.482-0.014,35.208C99.474,477.424,101.285,484.377,107.03,490.667z"/>
	<path fill-rule="evenodd" clip-rule="evenodd" fill="#FAF5ED" d="M548.719,451.379c4.153,6.048,6.587,12.743,8.26,19.881
		c1.121,4.78-1.37,7.883-3.577,11.347c-0.895-0.711-0.702-1.841-1.063-2.753c-1.613-4.063-6.309-5.704-10.051-3.452
		c-4.156,2.499-7.391,5.991-9.976,10.01c-7.818,12.151-12.289,25.343-11.909,39.956c0.256,9.832,0.505,19.668,2.055,29.408
		c0.317,1.99,0.892,3.939,1.402,6.152c-10.438,1.758-20.876,3.533-31.394,4.854c-21.356,2.68-42.187,1.023-62.235-7.299
		c-1.488-0.618-2.882-0.35-4.313-0.059c-37.308,7.62-74.769,7.69-112.322,2.17c-8.492-1.248-16.928-2.879-25.388-4.341
		c-1.567-0.271-3.02-0.336-4.606,0.346c-20.003,8.601-41.116,11.979-62.685,13.176c-10.813,0.6-21.631,0.765-32.856,0.726
		c3.907-6.713,3.472-13.672,2.888-20.682c-0.958-11.479-1.385-23.023-4.963-34.129c-3.847-11.941-9.569-22.676-19.4-30.833
		c-4.019-3.336-6.686-2.877-9.389,1.799c-3.3-4.691-6.51-9.711-13.405-7.59c-3.106,0.955-4.577,5.507-4.763,13.441
		c-0.933,0.2-1.378-0.642-2.041-0.99c-4.49-2.368-8.638-0.724-10.071,4.111c-2.377,8.021-0.982,15.9,1.015,23.74
		c2.577,10.116,7.108,19.49,11.103,29.066c-0.297,0.214-0.594,0.429-0.892,0.643c-18.292-9.879-27.587-25.445-28.779-45.974
		c-1.172-20.199,3.345-39.257,12.058-57.403c0.339-0.706,0.8-1.353,1.206-2.028c0.212-0.076,0.459-0.103,0.629-0.231
		c9.322-7.103,16.435-16.317,24.005-25.097c1.102-1.277,0.14-1.709-0.719-2.277c-4.752-3.146-7.821-7.69-10.512-12.57
		c-1.57-2.846-2.913-5.857-5.386-8.109c-2.342-29.383-3.486-58.694,4.371-87.586c0.77-2.828,1.92-4.026,4.886-4.319
		c3.342-0.33,6.615-1.402,9.902-2.218c0.91-0.226,2.313-0.33,1.776-1.821c-0.42-1.169-1.559-0.653-2.372-0.422
		c-5.672,1.616-11.425,2.739-17.332,2.935c-2.015,0.067-4.034,0.011-6.142,0.011c0.232-1.607,1.345-1.434,2.095-1.706
		c7.929-2.87,15.229-6.872,21.836-12.111c0.997-0.791,2.525-1.311,2.167-3.091c0.094-1.508,0.746-2.816,1.425-4.129
		c3.873-7.498,5.78-15.535,7.006-23.85c1.417-9.62,0.806-19.33,1.802-28.954c0.706-0.614,1.102-1.334,0.793-2.298
		c20.342-10.823,37.282-25.42,49.839-44.887c2.19-3.396,2.228-3.417,5.143-0.697c21.789,20.342,45.016,38.82,70.439,54.464
		c27.276,16.784,55.469,31.406,87.344,37.473c13.537,2.577,27.059,5.226,40.918,5.278c-0.063,0.558-0.098,1.122-0.196,1.674
		c-4.673,26.343,9.256,52.215,33.479,61.61c14.04,5.445,28.031,5.213,41.645-1.747c3.824-0.569,6.448-3.212,9.333-5.401
		c10.938-8.572,17.583-19.807,20.639-33.269c7.477,10.008,14.021,20.627,20.557,31.256c2.016,3.279,4.466,6.19,8.256,7.591
		c1.334,23.484-1.971,45.863-15.69,65.755c-1.279,1.854-2.604,3.678-4.491,4.99c-6.435,4.655-12.271,10.225-20.198,12.897
		c3.382,3.757,7.097,6.682,11.099,9.238c4.743,3.029,9.681,5.703,14.162,9.204c3.854,3.011,8.342,5.21,12.549,7.769l-0.022-0.039
		C547.498,450.842,548.096,451.12,548.719,451.379z M390.553,339.471c-4.026-1.176-8.255-1.176-12.321-1.225
		c-6.555-0.078-12.9,1.413-17.372,7.001c-0.762-0.114-1.646-0.464-2.044,0.534c-0.473,1.184,0.554,1.549,1.299,1.994
		c3.765,2.251,7.978,2.88,12.228,3.479c6.856,0.964,16.354-3.553,19.785-9.499C393.266,339.782,392.825,339.027,390.553,339.471z
		 M204.977,348.341c4.094,6.196,8.69,11.729,16.76,12.666c0.822,1.199,2.205,1.512,3.406,2.053
		c11.654,5.25,23.803,6.724,36.426,4.818c33.805-5.101,56.991-37.469,50.764-70.933c-6.22-33.425-39.015-55.367-73.437-48.436
		c-23.055,4.643-39.202,18.419-46.59,40.836C185.127,311.125,189.8,331.026,204.977,348.341z M295.71,499.093
		c0.01-14.853-3.17-27.456-8.726-39.512c-0.236-0.513-0.47-1.03-0.762-1.511c-0.311-0.514-0.79-0.862-1.405-0.621
		c-0.762,0.299-0.916,0.928-0.625,1.654c0.335,0.838,0.691,1.669,1.06,2.492c4.715,10.516,7.315,21.485,8.119,33.027
		c0.39,5.604-1.641,8.863-6.061,11.832c-11.433,7.68-24.224,10.775-37.644,12.074c-2.567,0.248-4.996,0.376-7.561-0.743
		c-9.676-4.22-18.99-8.97-26.884-16.134c-0.7-0.636-1.496-1.835-2.518-0.739c-1.015,1.088,0.181,1.862,0.909,2.459
		c2.622,2.144,5.191,4.379,7.987,6.274c12.495,8.472,26.604,13.27,40.87,17.674c1.188,0.367,2.901,0.846,3.605,0.033
		c2.783-3.212,5.999-1.545,9.141-1.291c0.984,0.079,2.186,0.063,2.966-0.425c1.904-1.19,3.708-0.958,5.773-0.565
		c4.206,0.801,8.259-1.252,8.84-4.349C294.229,513.068,295.855,505.43,295.71,499.093z M472.165,521.299
		c3.791-0.076,7.366-1.152,10.826-2.556c7.324-2.968,14.609-6.037,21.892-9.109c0.938-0.396,2.725-0.487,2.146-2.007
		c-0.666-1.747-2.138-0.525-3.155-0.115c-4.188,1.687-8.464,3.23-12.455,5.312c-2.998,1.563-5.018,1.075-7.438-1.084
		c-4.298-3.832-8.817-7.434-13.399-10.927c-7.128-5.435-15.036-9.275-24.07-10.062c-3.123-0.272-2.816-1.311-1.916-3.512
		c4.815-11.779,12.754-20.949,23.125-28.153c0.813-0.564,2.5-1.043,1.475-2.461c-0.996-1.377-2.026,0.012-2.858,0.582
		c-10.801,7.405-19.007,16.938-23.937,29.182c-2.63,6.527-4.254,13.333-5.813,20.161c-0.758,3.315,0.92,6.194,4.045,7.513
		c2.706,1.143,5.541-1.714,7.292-0.598c2.023,1.287,3.268,3.911,6.103,4.312c2.854,0.403,5.649-0.033,8.392-0.749
		c1.23-0.321,2.025-0.363,2.776,0.924C466.723,520.572,469.286,521.326,472.165,521.299z M403.353,400.779
		c2.194-0.053,5.235-0.191,8.212-0.993c6.941-1.87,12.012-6.092,15.431-12.336c4.17-7.616,5.525-15.936,5.919-24.473
		c0.027-0.607-0.434-1.048-1.061-1.093c-0.673-0.049-1.047,0.447-1.149,1.02c-0.18,0.996-0.268,2.013-0.354,3.024
		c-0.514,5.996-1.6,11.859-3.994,17.425c-4.304,10.007-11.915,15.011-22.788,15.016c-8.751,0.004-16.937-2.546-24.911-5.834
		c-1.872-0.771-2.946-0.548-4.288,0.986c-4.646,5.313-9.966,9.851-16.375,12.955c-11.771,5.704-23.089,3.724-32.241-5.608
		c-3.029-3.088-5.453-6.616-7.535-10.397c-0.411-0.745-0.814-1.921-1.945-1.4c-1.378,0.634-0.597,1.694-0.123,2.566
		c2.889,5.311,6.422,10.117,11.196,13.897c8.484,6.72,17.859,8.267,28.052,4.618c7.747-2.773,13.997-7.756,19.514-13.688
		c1.464-1.574,2.574-1.813,4.592-1.009C386.876,398.391,394.469,400.562,403.353,400.779z M161.59,368.265
		c-2.147,0-4.294,0.016-6.441-0.003c-2.938-0.027-5.877-0.115-8.815-0.104c-0.942,0.003-2.375-0.299-2.419,1.116
		c-0.055,1.764,1.546,1.145,2.558,1.291c0.221,0.031,0.452,0.005,0.678,0.005c30.583-0.028,60.663,3.375,89.813,13.141
		c0.919,0.308,2.078,1.088,2.608-0.285c0.541-1.401-0.874-1.57-1.759-1.928c-0.835-0.337-1.713-0.567-2.572-0.848
		C211.311,372.835,186.653,369.417,161.59,368.265z M520.011,366.01c3.97,0.193,9.494,0.472,15.02,0.721
		c0.952,0.043,2.325,0.456,2.392-1.035c0.064-1.456-1.337-1.176-2.291-1.3c-0.223-0.029-0.45-0.022-0.676-0.04
		c-11.955-0.929-23.912-0.998-35.856,0.117c-11.391,1.063-22.551,3.23-33.256,7.395c-0.963,0.375-2.564,0.53-2.037,2.067
		c0.476,1.384,1.684,0.586,2.596,0.237C482.837,367.705,500.516,366.044,520.011,366.01z M234.472,399.299
		c-0.559-1.595-1.88-1.011-2.893-0.968c-21.76,0.918-43.214,3.861-64.21,9.794c-0.759,0.215-1.522,0.436-2.248,0.739
		c-0.547,0.229-0.942,0.702-0.752,1.334c0.176,0.586,0.689,0.951,1.299,0.849c0.887-0.149,1.756-0.415,2.624-0.663
		c13.622-3.884,27.488-6.518,41.572-7.947c7.31-0.741,14.648-1.196,21.971-1.812C232.852,400.539,234.219,400.972,234.472,399.299z
		 M488.106,397.41c-1.579-0.082-3.158-0.22-4.738-0.227c-1.043-0.005-2.643-0.51-2.737,1.083c-0.098,1.622,1.525,1.281,2.576,1.352
		c1.69,0.113,3.389,0.093,5.079,0.203c12.12,0.79,23.99,2.741,35.288,7.466c1.141,0.477,2.832,2.421,3.675,0.338
		c0.747-1.847-1.711-1.984-2.896-2.497C512.795,400.128,500.576,398.175,488.106,397.41z"/>
	<path fill-rule="evenodd" clip-rule="evenodd" fill="#FD7809" d="M550.252,340.172c-3.79-1.4-6.24-4.312-8.256-7.591
		c-6.535-10.629-13.08-21.248-20.557-31.256c1.188-7.526,1.275-15.021-0.216-22.543c-7.581-38.219-51.631-56.111-82.922-33.612
		c-11.516,8.28-18.389,19.654-21.761,33.289c-13.859-0.052-27.381-2.701-40.918-5.278c-31.875-6.066-60.068-20.689-87.344-37.473
		c-25.423-15.644-48.65-34.122-70.439-54.464c-2.915-2.721-2.952-2.699-5.143,0.697c-12.557,19.467-29.497,34.064-49.839,44.887
		c-1.667-0.611-2.805,0.571-4.033,1.27c-18.091,10.293-36.332,20.261-56.021,27.287c-24.675,8.805-50.025,11.955-76.109,9.541
		c-2.302-0.213-3.326-1.104-4.114-3.127c-5.385-13.839-6.72-28.303-6.792-42.969c-0.125-25.726,6.756-49.13,23.182-69.309
		c12.702-15.604,29.035-26.241,47.028-34.813c11.605-5.528,23.887-7.363,36.41-8.51c18.275-1.674,36.388-1.132,54.06,4.457
		c13.743,4.346,25.603,11.688,35.582,22.177c23.912,25.135,52.261,42.755,86.575,49.658c40.878,8.223,79.359,0.758,115.654-19.01
		c22.152-12.065,40.919-28.183,55.827-48.627c1.111-1.522,2.378-2.147,4.139-2.484c22.606-4.322,44.519-11,65.918-19.441
		c2.561-1.01,3.946-2.225,4.379-5.167c0.652-4.45,2.021-8.797,3.113-13.181c0.26-1.044,1.174-2.088-0.034-3.078
		c-1.229-1.009-2.137,0.136-3.037,0.624c-19.153,10.389-39.245,18.365-60.133,24.611c-7.597,2.271-13.139,1.597-19.647-3.391
		c-17.269-13.232-36.201-23.906-56.033-32.92c-1.2-0.545-3.172-0.679-1.208-2.83c16.793-18.386,36.207-32.331,61.346-36.842
		c19.65-3.526,39.015-1.568,58.156,3.167c24.097,5.961,44.683,18.308,61.871,36.069c15.416,15.931,22.367,35.537,23.186,57.481
		c0.521,13.977-1.393,27.749-3.545,41.518c-1.269,0.088-1.059-0.973-1.195-1.606c-2.022-9.323-7.775-15.838-15.504-20.96
		c-11.928-7.905-25.32-11.366-39.308-12.633c-23.056-2.088-45.604,0.461-67.395,8.552c-4.673,1.735-9.169,3.899-12.941,7.271
		c-2.381,2.128-4.255,4.618-3.145,8.012c1.093,3.336,3.82,4.387,7.158,4.641c8.476,0.644,16.959,0.252,25.437,0.391
		c4.642,0.076,9.278,0.164,13.866,0.911c1.407,0.229,3.013,0.417,3.049,2.486c0.033,1.83-1.405,2.204-2.641,2.618
		c-2.801,0.937-5.717,1.344-8.663,1.502c-9.275,0.496-18.541,0.239-27.805-0.318c-1.127-0.067-2.806-0.742-3.053,1.054
		c-0.203,1.481,1.482,1.493,2.459,1.822c6.968,2.346,13.911,4.742,20.436,8.187c3.114,1.645,6.102,3.485,8.375,6.241
		c0.682,0.828,1.854,1.721,1.279,2.902c-0.498,1.021-1.822,0.57-2.783,0.62c-5.591,0.291-10.769-1.186-15.541-4.003
		c-4.477-2.643-8.831-5.492-13.289-8.168c-0.837-0.502-2.031-1.755-2.847-0.156c-0.646,1.267,0.766,1.657,1.595,2.142
		c6.139,3.593,11.814,7.975,18.384,10.833c-0.472,7.791,0.452,15.178,4.746,22.052c3.868,6.191,8.334,11.786,13.665,16.729
		c-1.226,0.511-2.02,1.282-0.917,2.528c7.447,8.414,9.153,18.995,10.911,29.461c1.891,11.264,6.31,21.654,10.333,32.197
		c5.315,13.931,10.742,27.821,14.74,42.212C549.228,330.982,550.048,335.525,550.252,340.172z"/>
	<path fill-rule="evenodd" clip-rule="evenodd" fill="#2E773A" d="M143.488,28.516c4.313,0.348,8.183,1.888,12.16,2.881
		c9.521,2.377,18.991,4.966,28.639,6.804c4.271,0.813,7.439,3.711,10.957,5.884c13.848,8.553,27.925,16.698,42.253,24.416
		c0.374,0.202,0.699,0.494,1.358,0.968c-3.39,1.831-6.902,1.965-10.231,2.337c-9.198,1.03-18.432,1.76-27.708,1.583
		c-0.904-0.017-1.813-0.03-2.714,0.032c-0.918,0.063-1.954,0.214-1.962,1.401c-0.01,1.316,1.115,1.181,1.993,1.209
		c7.92,0.26,15.826-0.253,23.691-0.971c6.586-0.601,13.319-0.801,19.515-3.668c0.904-0.418,1.759,0.004,2.58,0.43
		c17.767,9.217,35.954,17.491,54.772,24.344c0.374,0.136,0.68,0.459,1.279,0.877c-3.808,2.586-7.771,4.112-11.753,5.607
		c-12.417,4.661-25.537,6.631-38.286,10.021c-1.636,0.436-3.266,0.9-4.872,1.433c-0.919,0.305-2.372,0.495-2.093,1.76
		c0.357,1.623,1.85,0.944,2.822,0.642c6.368-1.976,12.879-3.367,19.371-4.831c10.689-2.411,21.632-4.408,31.17-9.939
		c5.914-3.43,10.867-2.769,16.808-0.713c21.28,7.363,43.238,11.959,65.542,14.93c1.45,0.193,2.921,0.235,4.378,0.383
		c0.191,0.02,0.36,0.246,1.108,0.791c-3.479,2.293-6.718,4.549-10.072,6.619c-19.382,11.958-40.125,21.263-60.636,31.019
		c-1.736,0.826-3.461,1.675-5.173,2.548c-0.789,0.403-1.843,0.814-1.248,1.976c0.583,1.137,1.531,0.572,2.349,0.188
		c5.831-2.735,11.683-5.428,17.485-8.224c18.732-9.026,37.836-17.489,54.804-29.612c6.203-4.432,12.218-4.534,18.931-4.032
		c9.813,0.733,19.623,0.573,29.45,0.049c8.569-0.458,17.109-1.088,25.607-2.272c2.678-0.374,5.352-0.766,8.029-1.138
		c0.972-0.135,2.179-0.74,2.832,0.204c0.627,0.904-0.532,1.619-1.024,2.282c-6.297,8.476-13.656,15.985-21.55,22.943
		c-10.806,9.525-22.671,17.563-35.489,24.147c-15.468,7.945-31.748,13.565-48.857,16.717c-10.345,1.906-20.78,2.903-31.307,2.711
		c-33.939-0.62-64.466-11.17-91.592-31.564c-23.427-17.613-41.199-40.043-55.558-65.36c-5.86-10.333-11.134-20.964-15.631-31.96
		c-4.015-9.819-11.601-16.536-19.53-22.991C145.145,30.61,143.951,30.107,143.488,28.516z"/>
	<path fill-rule="evenodd" clip-rule="evenodd" fill="#2D763A" d="M469.299,100.224c-16.927,3.463-33.885,5.434-51.085,5.926
		c-7.243,0.208-14.423-0.607-21.636-0.267c-1.363,0.064-2.519-0.012-3.401-1.523c-5.131-8.787-12.483-15.731-19.662-22.729
		c-7.755-7.559-15.696-14.956-24.183-21.727c-3.004-2.397-6.03-4.753-9.388-6.643c-1.211-0.682-2.805-1.465-3.558,0.126
		c-1,2.112,1.358,1.44,2.207,1.931c5.02,2.903,9.375,6.687,13.774,10.387c10.301,8.666,19.92,18.068,29.199,27.81
		c2.642,2.773,4.99,5.828,7.427,8.79c0.552,0.67,1.373,1.453,0.981,2.373c-0.451,1.06-1.617,0.612-2.426,0.532
		c-6.728-0.668-13.481-1.184-20.163-2.182c-20.898-3.122-41.377-8.053-61.458-14.662c-2.25-0.741-3.495-1.948-4.574-3.977
		c-6.688-12.584-14.069-24.743-23.195-35.74c-1.05-1.266-2.207-4.273-4.171-2.688c-1.522,1.228,1.142,2.745,2.093,3.925
		c7.819,9.709,14.465,20.184,20.551,31.035c0.662,1.181,1.234,2.413,1.814,3.637c0.073,0.156-0.064,0.411-0.197,1.109
		c-4.039-1.464-8.04-2.825-11.974-4.356c-14.428-5.615-28.557-11.908-42.45-18.744c-1.905-0.937-2.928-2.127-3.502-4.137
		c-2.214-7.752-8.124-12.526-14.164-17.16c-0.663-0.508-1.479-0.917-2.05-0.023c-0.522,0.818,0.115,1.49,0.718,2.038
		c2.674,2.427,5.421,4.779,8.017,7.288c2.273,2.196,3.926,4.817,5.082,8.772c-13.085-6.553-25.01-13.358-37.212-20.896
		c6.255-1.38,11.992-1.276,17.64-1.627c22.895-1.423,45.834-2.327,68.762-1.39c43.257,1.768,84.979,10.323,124.36,29.001
		c20.087,9.527,38.92,21.046,56.794,34.202C468.694,98.946,469.296,99.152,469.299,100.224z"/>
	<path fill-rule="evenodd" clip-rule="evenodd" fill="#FACACF" d="M512.917,220.108c-5.331-4.942-9.797-10.537-13.665-16.729
		c-4.294-6.874-5.218-14.261-4.746-22.052c5.029,1.451,10.079,2.366,15.37,1.515c2.43-0.391,2.736-1.411,1.935-3.444
		c-1.303-3.304-3.721-5.626-6.51-7.625c-4.447-3.185-9.458-5.277-14.474-7.351c-0.883-0.365-1.761-0.742-2.574-1.348
		c7.475-0.313,14.897,0.145,22.271-0.825c2.697-0.354,5.383-0.745,7.836-2.012c1.846-0.954,2.922-2.303,2.746-4.59
		c-0.188-2.454-1.529-3.637-3.735-4.139c-5.114-1.163-10.333-1.132-15.525-1.244c-7.688-0.165-15.378-0.15-23.066-0.261
		c-1.462-0.021-2.964-0.097-4.37-0.451c-3.188-0.803-4.213-3.589-2.3-6.261c2.104-2.938,5.196-4.662,8.342-6.231
		c9.5-4.737,19.67-7.341,30.062-9.091c20.272-3.414,40.496-3.847,60.528,1.668c7.799,2.147,15.003,5.54,21.634,10.242
		c11.03,7.82,14.134,19.103,14.062,31.732c-0.103,17.951-9.885,30.004-24.512,38.695c-15.74,9.351-33.104,12.302-51.17,11.853
		C524.959,222.01,518.863,221.678,512.917,220.108z"/>
	<path fill-rule="evenodd" clip-rule="evenodd" fill="#FACACF" d="M162.066,229.125c-0.997,9.624-0.385,19.333-1.802,28.954
		c-1.226,8.315-3.133,16.352-7.006,23.85c-0.679,1.313-1.331,2.621-1.425,4.129c-1.259-0.792-2.099,0.04-2.991,0.751
		c-17.659,14.084-37.883,18.316-59.933,15.687c-10.568-1.259-21.044-2.88-31.066-6.653c-12.997-4.894-23.554-12.805-30.7-24.905
		c-0.608-1.03-1.546-1.958-1.43-3.6c4.168,0.234,8.293,0.535,12.425,0.688c32.299,1.191,62.379-7.095,91.109-21.266
		C140.396,241.261,151.13,235.01,162.066,229.125z"/>
	<path fill-rule="evenodd" clip-rule="evenodd" fill="#FCC18D" d="M161.341,502.909c0.628-3.62,0.5-6.277-0.324-8.928
		c-0.433-1.395-0.733-2.849-0.917-4.299c-0.15-1.188-0.425-2.535,1.028-3.273c1.35-0.686,2.357-0.014,3.373,0.796
		c3.741,2.979,6.962,6.448,9.694,10.361c7.694,11.022,11.504,23.471,12.979,36.66c0.866,7.741,1.475,15.537,1.662,23.32
		c0.345,14.432-7.278,20.082-20.85,15.048c-11.711-4.343-20.771-12.306-26.294-23.633c-5.743-11.778-11.014-23.798-13.074-36.904
		c-0.759-4.831-0.866-9.687,0.472-14.46c1.075-3.835,4.39-4.896,7.53-2.411c2.164,1.712,3.555,4.073,5.046,6.336
		c2.094,3.18,4.066,6.449,7.006,9.626c-0.692-4.937-2.653-8.848-4.644-12.77c-1.639-3.229-3.28-6.555-2.498-10.332
		c0.498-2.405,1.037-5.118,3.825-5.934c3.004-0.878,5.231,0.828,7.03,3.026c3.268,3.992,5.03,8.797,7.079,13.44
		C160.004,499.803,160.528,501.031,161.341,502.909z"/>
	<path fill-rule="evenodd" clip-rule="evenodd" fill="#FCC18D" d="M552.907,499.015c0.813-4.689,1.47-8.813,2.258-12.911
		c0.474-2.463,1.331-4.831,3.186-6.625c1.492-1.442,3.23-2.639,5.447-1.876c2.301,0.792,2.792,2.87,2.816,4.959
		c0.07,5.912-1.156,11.682-2.176,17.466c-0.45,2.549-0.808,4.981,2.009,6.578c1.055-0.91,0.436-2.098,0.433-3.098
		c-0.009-4.436,1.026-8.503,3.771-12.06c1.056-1.367,2.273-2.519,3.972-3.039c2.674-0.819,4.046,0.017,3.893,2.737
		c-1.517,27.021-9.883,51.171-30.124,70.1c-4.346,4.063-9.973,3.788-15.426,2.501c-6.522-1.54-7.442-2.638-8.347-9.29
		c-1.481-10.89-2.421-21.896-1.817-32.812c0.769-13.902,5.424-26.737,14.387-37.71c1.65-2.02,3.582-3.778,5.794-5.184
		c3.429-2.178,6.99-0.597,7.416,3.489c0.292,2.793,0.081,5.643,0.028,8.466C550.375,493.47,550.846,496.063,552.907,499.015z"/>
	<path fill-rule="evenodd" clip-rule="evenodd" fill="#205529" d="M544.309,75.331c-0.318,4.403-1.761,8.582-2.564,12.886
		c-0.283,1.519-1.383,1.844-2.568,2.322c-22.338,9.009-45.31,15.854-69.036,20.055c-11.86,2.101-23.799,3.469-35.843,4.271
		c-10.968,0.73-21.934,0.854-32.85,0.339c-18.439-0.868-36.737-3.299-54.77-7.43c-28.155-6.449-55.149-16.186-81.347-28.309
		c-25.059-11.596-48.943-25.279-72.398-39.769c-0.152-0.093-0.189-0.371-0.39-0.792c1.975-0.395,3.582-0.188,5.362,0.896
		c17.766,10.806,35.933,20.892,54.724,29.814c26.678,12.667,54.254,22.892,82.972,29.865c15.428,3.746,31.069,6.267,46.89,7.9
		c14.662,1.514,29.349,1.78,43.979,1.04c28.175-1.425,55.581-7.064,82.024-17.135c11.408-4.345,22.611-9.099,33.313-14.996
		c0.775-0.427,1.67-0.639,2.51-0.951L544.309,75.331z"/>
	<path fill-rule="evenodd" clip-rule="evenodd" fill="#F9BF8C" d="M107.03,490.667c-5.745-6.29-7.556-13.243-8.567-20.459
		c-1.645-11.726-0.824-23.468,0.014-35.208c0.151-2.128,1.181-2.23,2.879-2.142c7.117,0.378,14.249,0.577,21.357-0.016
		c2.772-0.23,2.458,0.676,1.529,2.525c-4.264,8.485-8.28,17.084-11.367,26.083C109.719,470.649,107.861,480.126,107.03,490.667z"/>
	<path fill-rule="evenodd" clip-rule="evenodd" fill="#FD7809" d="M547.682,450.025c-4.207-2.559-8.695-4.758-12.549-7.769
		c-4.481-3.501-9.419-6.175-14.162-9.204c-4.002-2.557-7.717-5.481-11.099-9.238c7.928-2.673,13.764-8.242,20.198-12.897
		c0.333,1.085-0.432,1.796-1.072,2.304c-3.452,2.734-2.631,5.363-0.533,8.65c5.229,8.195,11.286,15.79,16.727,23.824
		C546.123,447.069,547.421,448.258,547.682,450.025z"/>
	<path fill-rule="evenodd" clip-rule="evenodd" fill="#FD7809" d="M130.646,396.387c2.473,2.252,3.816,5.264,5.386,8.109
		c2.691,4.88,5.76,9.424,10.512,12.57c0.858,0.568,1.82,1,0.719,2.277c-7.57,8.779-14.683,17.994-24.005,25.097
		c-0.17,0.129-0.417,0.155-0.629,0.231c2.122-5.858,5.283-11.224,8.067-16.766c0.998-1.986,1.479-3.893,1.329-6.146
		C131.465,413.309,131.09,404.846,130.646,396.387z"/>
	<path fill-rule="evenodd" clip-rule="evenodd" fill="#FD7809" d="M548.719,451.379c-0.623-0.259-1.222-0.537-1.06-1.393
		C548.381,450.17,548.525,450.794,548.719,451.379z"/>
	<path fill-rule="evenodd" clip-rule="evenodd" fill="#205529" d="M544.318,75.34c0.051-0.093,0.103-0.186,0.153-0.278
		c-0.055,0.09-0.108,0.179-0.162,0.269L544.318,75.34z"/>
	<path fill-rule="evenodd" clip-rule="evenodd" fill="#FAF5ED" d="M139.036,549.435c0.085,0.296,0.334,0.75,0.227,0.861
		c-0.403,0.422-0.784,0.09-1.118-0.219C138.441,549.863,138.739,549.648,139.036,549.435z"/>
	<path fill-rule="evenodd" clip-rule="evenodd" fill="#040404" d="M204.977,348.341c-15.176-17.314-19.849-37.216-12.671-58.995
		c7.388-22.417,23.536-36.193,46.59-40.836c34.422-6.931,67.217,15.011,73.437,48.436c6.228,33.464-16.959,65.832-50.764,70.933
		c-12.623,1.905-24.772,0.432-36.426-4.818c-1.201-0.541-2.584-0.854-3.406-2.053c5.952,0.653,11.035-1.534,15.781-4.823
		c0.723,1.334,1.999,0.805,3.02,0.774c7.25-0.215,14.237-1.743,20.977-4.415c3.283-1.302,6.579-2.582,9.716-6.031
		c-10.102,1.598-19.342,2.215-28.612,0.972c2.881-13.937-7.134-22.693-17.083-23.477c-4.195-0.331-7.947,1.121-11.74,2.517
		c0.124-2.812-2.006-4.984-2.186-7.711c2.788-6.12,1.955-9.645-3.307-13.993c-0.083-8.526-0.198-17.054,1.727-25.488
		c-4.068,7.748-5.101,16.266-6.43,24.705c-5.4,1.929-7.722,4.779-7.667,9.408c0.055,4.52,2.433,7.354,7.619,9.079
		c0.618,3.954,1.308,7.888,3.424,11.393c-1.604,4.241-2.658,8.536-1.365,13.084C205.771,347.563,205.638,348.107,204.977,348.341z
		 M259.365,333.508c21.452-0.038,39.091-18.13,38.991-39.99c-0.104-22.628-17.418-40.499-39.195-40.456
		c-21.593,0.042-39.094,18.141-38.988,40.319C220.28,315.674,237.736,333.545,259.365,333.508z"/>
	<path fill-rule="evenodd" clip-rule="evenodd" fill="#040403" d="M416.542,278.458c3.372-13.634,10.245-25.008,21.761-33.289
		c31.291-22.499,75.341-4.607,82.922,33.612c1.491,7.522,1.403,15.017,0.216,22.543c-3.056,13.462-9.7,24.696-20.639,33.269
		c0.64-2.667,1.278-5.335,1.918-8.002c1.135-0.411,1.686-1.404,2.319-2.319c4.033-5.824,5.637-12.328,5.421-19.342
		c3.686-1.834,5.057-4.934,4.643-8.863c-0.378-3.594-2.303-5.978-5.937-6.798c-0.695-4.368-1.309-8.763-3.836-12.58
		c0.718,4.466,1.098,8.924,1.222,13.406c-4.069,4.051-4.493,7.844-1.461,13.127c-1.866,4.631-3.733,9.263-5.601,13.895
		c-0.459-0.32-0.939-0.614-1.373-0.965c-7.651-6.188-17.727-2.861-20.119,6.665c-0.763,3.038-0.311,6.042,0.381,9.026
		c-7.207,1.281-14.275,3.753-21.817,2.229c0.12,1.097,0.803,1.381,1.361,1.7c7.286,4.176,15.106,3.742,22.994,2.578
		c0.544-0.08,0.979-0.538,0.983-1.205c2.965,1.703,6.025,3.089,9.568,2.848c-13.613,6.96-27.604,7.192-41.645,1.747
		c-24.223-9.396-38.151-35.268-33.479-61.61C416.444,279.58,416.478,279.016,416.542,278.458z M489.224,286.354
		c-0.277-11.474-3.596-21.565-11.911-29.547c-11.366-10.912-27.718-10.792-39.045,0.152c-15.441,14.92-15.53,42.944-0.185,57.982
		c11.45,11.222,28.117,11.281,39.534,0.047C485.646,307.089,488.88,297.202,489.224,286.354z"/>
	<path fill-rule="evenodd" clip-rule="evenodd" fill="#FDFDFD" d="M237.518,356.184c-4.746,3.289-9.83,5.477-15.781,4.823
		c-8.07-0.937-12.666-6.47-16.76-12.666c0.661-0.233,0.795-0.777,0.635-1.341c-1.293-4.548-0.239-8.843,1.365-13.084
		c1.854-2.851,4.314-5.142,6.819-7.393c3.793-1.396,7.545-2.848,11.74-2.517c9.949,0.783,19.964,9.54,17.083,23.477
		C241.583,350.773,239.423,353.403,237.518,356.184z"/>
	<path fill-rule="evenodd" clip-rule="evenodd" fill="#191715" d="M295.71,499.093c0.146,6.337-1.48,13.976-2.916,21.631
		c-0.581,3.097-4.634,5.149-8.84,4.349c-2.066-0.393-3.869-0.625-5.773,0.565c-0.78,0.488-1.982,0.504-2.966,0.425
		c-3.142-0.254-6.357-1.921-9.141,1.291c-0.704,0.813-2.417,0.334-3.605-0.033c-14.266-4.404-28.375-9.202-40.87-17.674
		c-2.796-1.896-5.365-4.131-7.987-6.274c-0.729-0.597-1.924-1.371-0.909-2.459c1.022-1.096,1.818,0.104,2.518,0.739
		c7.894,7.164,17.208,11.914,26.884,16.134c2.564,1.119,4.994,0.991,7.561,0.743c13.42-1.299,26.211-4.395,37.644-12.074
		c4.42-2.969,6.451-6.228,6.061-11.832c-0.804-11.542-3.404-22.512-8.119-33.027c-0.369-0.823-0.725-1.654-1.06-2.492
		c-0.291-0.727-0.137-1.355,0.625-1.654c0.615-0.241,1.094,0.107,1.405,0.621c0.292,0.48,0.526,0.998,0.762,1.511
		C292.54,471.637,295.72,484.24,295.71,499.093z M292.616,505.268c-11.8,9.959-25.692,13.545-40.156,15.925
		c3.766,1.606,7.469,2.834,11.207,3.944c1.282,0.381,2.609,0.138,3.045-1.352c0.662-2.262,1.943-1.909,3.628-1.248
		c2.304,0.904,4.928,2.159,7.149,0.701c2.286-1.499,4.193-1.185,6.563-0.67c2.276,0.495,5.505,0.615,6.157-2.055
		C291.368,515.761,292.724,510.942,292.616,505.268z"/>
	<path fill-rule="evenodd" clip-rule="evenodd" fill="#FDFDFD" d="M478.378,331.845c-0.691-2.984-1.144-5.988-0.381-9.026
		c2.393-9.526,12.468-12.854,20.119-6.665c0.434,0.351,0.914,0.645,1.373,0.965c1.688,2.949,2.897,6.062,3.229,9.474
		c-0.64,2.667-1.278,5.335-1.918,8.002c-2.885,2.189-5.509,4.832-9.333,5.401c-3.543,0.241-6.604-1.145-9.568-2.848
		C480.726,335.38,479.552,333.612,478.378,331.845z"/>
	<path fill-rule="evenodd" clip-rule="evenodd" fill="#191715" d="M472.165,521.299c-2.879,0.027-5.441-0.727-6.972-3.348
		c-0.751-1.287-1.546-1.245-2.776-0.924c-2.742,0.716-5.538,1.152-8.392,0.749c-2.835-0.4-4.079-3.024-6.103-4.312
		c-1.751-1.116-4.586,1.74-7.292,0.598c-3.125-1.318-4.803-4.197-4.045-7.513c1.559-6.828,3.183-13.634,5.813-20.161
		c4.93-12.243,13.136-21.776,23.937-29.182c0.832-0.57,1.862-1.959,2.858-0.582c1.025,1.418-0.661,1.896-1.475,2.461
		c-10.371,7.204-18.31,16.374-23.125,28.153c-0.9,2.201-1.207,3.239,1.916,3.512c9.034,0.786,16.942,4.627,24.07,10.062
		c4.582,3.493,9.102,7.095,13.399,10.927c2.421,2.159,4.44,2.646,7.438,1.084c3.991-2.081,8.267-3.625,12.455-5.312
		c1.018-0.41,2.489-1.632,3.155,0.115c0.579,1.52-1.208,1.611-2.146,2.007c-7.282,3.072-14.567,6.142-21.892,9.109
		C479.531,520.146,475.956,521.223,472.165,521.299z M484.833,515.417c-7.032-5.584-13.177-11.419-20.396-15.899
		c-5.847-3.63-12.198-5.763-19.021-6.637c-2.037-0.261-3.119,0.22-3.573,2.343c-0.85,3.967-1.978,7.876-2.833,11.843
		c-0.698,3.233,1.689,5.473,4.93,4.681c1.071-0.262,2.116-0.796,3.057-1.389c1.478-0.932,2.486-0.885,3.059,0.953
		c1.177,3.772,4.064,4.557,7.51,4.1c2.117-0.28,4.224-0.73,6.291-1.273c1.287-0.339,2.185-0.306,2.67,1.115
		c1.208,3.534,4.022,3.881,7.149,3.518C477.408,518.337,480.909,517.105,484.833,515.417z"/>
	<path fill-rule="evenodd" clip-rule="evenodd" fill="#191715" d="M403.353,400.779c-8.884-0.218-16.477-2.389-23.85-5.323
		c-2.018-0.804-3.128-0.565-4.592,1.009c-5.517,5.932-11.767,10.914-19.514,13.688c-10.192,3.648-19.567,2.102-28.052-4.618
		c-4.774-3.78-8.307-8.587-11.196-13.897c-0.474-0.872-1.255-1.933,0.123-2.566c1.13-0.521,1.534,0.655,1.945,1.4
		c2.082,3.781,4.505,7.31,7.535,10.397c9.152,9.332,20.47,11.313,32.241,5.608c6.409-3.104,11.729-7.642,16.375-12.955
		c1.342-1.534,2.416-1.758,4.288-0.986c7.975,3.288,16.16,5.838,24.911,5.834c10.873-0.005,18.484-5.009,22.788-15.016
		c2.395-5.565,3.48-11.429,3.994-17.425c0.087-1.012,0.175-2.028,0.354-3.024c0.103-0.572,0.477-1.068,1.149-1.02
		c0.627,0.045,1.088,0.485,1.061,1.093c-0.394,8.537-1.749,16.856-5.919,24.473c-3.419,6.244-8.489,10.466-15.431,12.336
		C408.588,400.588,405.547,400.727,403.353,400.779z"/>
	<path fill-rule="evenodd" clip-rule="evenodd" fill="#191715" d="M161.59,368.265c25.063,1.152,49.721,4.57,73.65,12.386
		c0.858,0.28,1.737,0.511,2.572,0.848c0.885,0.357,2.3,0.526,1.759,1.928c-0.53,1.373-1.689,0.593-2.608,0.285
		c-29.15-9.766-59.23-13.169-89.813-13.141c-0.226,0-0.457,0.026-0.678-0.005c-1.012-0.146-2.613,0.473-2.558-1.291
		c0.044-1.415,1.478-1.113,2.419-1.116c2.938-0.012,5.877,0.076,8.815,0.104C157.296,368.28,159.443,368.265,161.59,368.265z"/>
	<path fill-rule="evenodd" clip-rule="evenodd" fill="#F9BF8C" d="M360.86,345.247c4.472-5.588,10.817-7.079,17.372-7.001
		c4.066,0.049,8.295,0.049,12.32,1.226C383.073,350.495,373.25,351.682,360.86,345.247z"/>
	<path fill-rule="evenodd" clip-rule="evenodd" fill="#191715" d="M520.011,366.01c-19.495,0.034-37.174,1.695-54.109,8.162
		c-0.912,0.349-2.12,1.146-2.596-0.237c-0.527-1.537,1.074-1.692,2.037-2.067c10.705-4.164,21.865-6.332,33.256-7.395
		c11.944-1.115,23.901-1.046,35.856-0.117c0.226,0.018,0.453,0.011,0.676,0.04c0.954,0.124,2.355-0.156,2.291,1.3
		c-0.066,1.491-1.439,1.078-2.392,1.035C529.505,366.481,523.981,366.203,520.011,366.01z"/>
	<path fill-rule="evenodd" clip-rule="evenodd" fill="#191715" d="M234.472,399.299c-0.253,1.673-1.62,1.24-2.637,1.326
		c-7.323,0.615-14.662,1.07-21.971,1.812c-14.083,1.43-27.95,4.063-41.572,7.947c-0.868,0.248-1.737,0.514-2.624,0.663
		c-0.61,0.103-1.123-0.263-1.299-0.849c-0.19-0.632,0.205-1.105,0.752-1.334c0.725-0.304,1.488-0.524,2.248-0.739
		c20.996-5.933,42.45-8.876,64.21-9.794C232.591,398.288,233.913,397.704,234.472,399.299z"/>
	<path fill-rule="evenodd" clip-rule="evenodd" fill="#191715" d="M488.106,397.41c12.47,0.765,24.689,2.718,36.247,7.718
		c1.185,0.513,3.643,0.65,2.896,2.497c-0.843,2.083-2.534,0.139-3.675-0.338c-11.298-4.725-23.168-6.676-35.288-7.466
		c-1.69-0.11-3.389-0.09-5.079-0.203c-1.051-0.07-2.674,0.271-2.576-1.352c0.095-1.593,1.694-1.088,2.737-1.083
		C484.948,397.19,486.527,397.328,488.106,397.41z"/>
	<path fill-rule="evenodd" clip-rule="evenodd" fill="#191715" d="M360.86,345.247c12.391,6.435,22.213,5.248,29.692-5.775
		c2.272-0.444,2.714,0.311,1.575,2.283c-3.431,5.946-12.929,10.463-19.785,9.499c-4.25-0.599-8.463-1.228-12.228-3.479
		c-0.745-0.445-1.771-0.811-1.299-1.994C359.214,344.783,360.098,345.133,360.86,345.247z"/>
	<path fill-rule="evenodd" clip-rule="evenodd" fill="#FDFDFD" d="M259.365,333.508c-21.629,0.037-39.085-17.834-39.192-40.126
		c-0.106-22.178,17.395-40.277,38.988-40.319c21.777-0.042,39.09,17.828,39.195,40.456
		C298.457,315.378,280.817,333.47,259.365,333.508z"/>
	<path fill-rule="evenodd" clip-rule="evenodd" fill="#FDFDFD" d="M203.552,322.523c-5.186-1.725-7.564-4.56-7.619-9.079
		c-0.056-4.629,2.267-7.479,7.667-9.408c1.568,0.261,3.135,0.521,4.703,0.783c5.261,4.349,6.095,7.873,3.307,13.993
		C209.496,321.291,206.849,322.613,203.552,322.523z"/>
	<path fill-rule="evenodd" clip-rule="evenodd" fill="#4C4C4C" d="M237.518,356.184c1.905-2.78,4.065-5.41,5.1-8.7
		c9.27,1.243,18.51,0.626,28.612-0.972c-3.137,3.449-6.433,4.729-9.716,6.031c-6.74,2.672-13.727,4.2-20.977,4.415
		C239.517,356.988,238.241,357.518,237.518,356.184z"/>
	<path fill-rule="evenodd" clip-rule="evenodd" fill="#4C4C4C" d="M203.552,322.523c3.297,0.09,5.943-1.232,8.057-3.711
		c0.18,2.727,2.31,4.899,2.186,7.711c-2.504,2.251-4.965,4.542-6.819,7.393C204.86,330.411,204.17,326.478,203.552,322.523z"/>
	<path fill-rule="evenodd" clip-rule="evenodd" fill="#4C4C4C" d="M208.303,304.819c-1.568-0.262-3.135-0.522-4.703-0.783
		c1.329-8.439,2.361-16.957,6.43-24.705C208.105,287.766,208.219,296.293,208.303,304.819z"/>
	<path fill-rule="evenodd" clip-rule="evenodd" fill="#FDFDFD" d="M489.224,286.354c-0.344,10.848-3.578,20.735-11.606,28.633
		c-11.417,11.234-28.084,11.175-39.534-0.047c-15.346-15.038-15.257-43.062,0.185-57.982c11.327-10.944,27.679-11.064,39.045-0.152
		C485.628,264.789,488.947,274.88,489.224,286.354z"/>
	<path fill-rule="evenodd" clip-rule="evenodd" fill="#FAF5ED" d="M509.166,289.27c3.634,0.82,5.559,3.204,5.937,6.798
		c0.414,3.929-0.957,7.029-4.643,8.863c-2.028,0.181-3.782-0.502-5.369-1.707c-3.032-5.283-2.608-9.077,1.461-13.127
		C507.423,289.82,508.294,289.545,509.166,289.27z"/>
	<path fill-rule="evenodd" clip-rule="evenodd" fill="#4C4C4C" d="M505.09,303.224c1.587,1.205,3.341,1.888,5.369,1.707
		c0.216,7.014-1.388,13.518-5.421,19.342c-0.634,0.915-1.185,1.908-2.319,2.319c-0.332-3.412-1.541-6.524-3.229-9.474
		C501.357,312.486,503.224,307.854,505.09,303.224z"/>
	<path fill-rule="evenodd" clip-rule="evenodd" fill="#4C4C4C" d="M478.378,331.845c1.174,1.768,2.348,3.535,3.521,5.303
		c-0.004,0.667-0.439,1.125-0.983,1.205c-7.888,1.164-15.708,1.598-22.994-2.578c-0.559-0.319-1.241-0.604-1.361-1.7
		C464.103,335.598,471.171,333.126,478.378,331.845z"/>
	<path fill-rule="evenodd" clip-rule="evenodd" fill="#4C4C4C" d="M509.166,289.27c-0.871,0.275-1.742,0.55-2.614,0.826
		c-0.124-4.482-0.504-8.94-1.222-13.406C507.857,280.507,508.47,284.902,509.166,289.27z"/>
	<path fill-rule="evenodd" clip-rule="evenodd" fill="#F9BF8C" d="M292.616,505.268c0.107,5.675-1.248,10.493-2.407,15.246
		c-0.651,2.67-3.88,2.55-6.157,2.055c-2.37-0.515-4.276-0.829-6.563,0.67c-2.222,1.458-4.846,0.203-7.149-0.701
		c-1.685-0.661-2.966-1.014-3.628,1.248c-0.436,1.489-1.763,1.732-3.045,1.352c-3.738-1.11-7.441-2.338-11.207-3.944
		C266.924,518.813,280.816,515.227,292.616,505.268z"/>
	<path fill-rule="evenodd" clip-rule="evenodd" fill="#F9BF8C" d="M484.833,515.417c-3.925,1.688-7.426,2.92-11.159,3.354
		c-3.127,0.363-5.941,0.017-7.149-3.518c-0.485-1.421-1.383-1.454-2.67-1.115c-2.067,0.543-4.174,0.993-6.291,1.273
		c-3.445,0.457-6.333-0.327-7.51-4.1c-0.572-1.838-1.581-1.885-3.059-0.953c-0.94,0.593-1.985,1.127-3.057,1.389
		c-3.24,0.792-5.628-1.447-4.93-4.681c0.855-3.967,1.983-7.876,2.833-11.843c0.454-2.123,1.536-2.604,3.573-2.343
		c6.823,0.874,13.175,3.007,19.021,6.637C471.657,503.998,477.801,509.833,484.833,515.417z"/>
</g>
</svg>
